<svg version="1.2" xmlns="http://www.w3.org/2000/svg" viewBox="0 0 64 64" width="64" height="64">
	<style>
		.s0 { fill: #efeff4 } 
		.s1 { fill: #dadae5 } 
		.s2 { fill: #474f54 } 
		.s3 { fill: #32393f } 
		.s4 { fill: #ff637b } 
		.s5 { fill: #c9c9d3 } 
		.s6 { fill: #676e74 } 
	</style>
	<g>
		<path class="s0" d="m64 14.45v41.79h-64v-41.79l3.75-3.78h56.5z"/>
		<path class="s1" d="m64 14.45v41.79h-32v-45.57h28.25z"/>
		<path class="s2" d="m0 0h64v15.52h-64z"/>
		<path class="s3" d="m32 0h32v15.52h-32z"/>
		<g>
			<path class="s4" d="m7.76 5.82h3.68v3.88h-3.68zm7.37 0h3.68v3.88h-3.68zm7.37 0h3.68v3.87h-3.68z"/>
		</g>
		<path class="s1" d="m11.64 22.3h41.69v3.88h-41.69z"/>
		<path class="s5" d="m32 22.3h20.36v3.88h-20.36z"/>
		<path class="s6" d="m121.42 36.78l-2.45 2.71-15.49-13.53-15.48 13.52-2.45-2.7 17.93-15.72z"/>
		<path class="s2" d="m73 42.06l18.42 15.72-2.51 2.7-15.91-13.52z"/>
	</g>
</svg>