<svg version="1.2" xmlns="http://www.w3.org/2000/svg" viewBox="0 0 64 64" width="64" height="64">
	<style>
		.s0 { fill: #676e74 } 
		.s1 { fill: #474f54 } 
		.s2 { fill: #64e1dc } 
		.s3 { fill: #00c8c8 } 
		.s4 { fill: #575c60 } 
		.s5 { fill: #333637 } 
	</style>
	<g>
		<path class="s0" d="m56.84 7.16c-9.52-9.57-24.9-9.53-34.43 0-8.02 8.02-9.45 20.44-3.52 30l-2.51 2.55-1.36 6.14 4.21 4.22 5.1-2.41 2.51-2.55c2.31 1.44 4.85 2.47 7.51 3.07 2.66 0.59 5.4 0.73 8.11 0.41 2.7-0.32 5.33-1.09 7.78-2.28 2.45-1.19 4.68-2.79 6.6-4.72 9.56-9.53 9.53-24.91 0-34.43z"/>
		<path class="s1" d="m24.33 47.66l2.51-2.55c2.31 1.44 4.85 2.47 7.51 3.07 2.66 0.59 5.4 0.73 8.11 0.41 2.7-0.32 5.33-1.09 7.78-2.28 2.45-1.19 4.68-2.79 6.6-4.72 9.57-9.53 9.53-24.91 0-34.43l-40.26 40.26 2.65 2.65z"/>
		<path class="s2" d="m54.21 9.79q-1.43-1.44-3.12-2.57-1.69-1.13-3.57-1.91-1.87-0.78-3.87-1.17-1.99-0.4-4.02-0.39c-11.39 0-20.63 9.23-20.63 20.62q0 2.03 0.39 4.03 0.4 1.99 1.17 3.87 0.78 1.87 1.91 3.56 1.13 1.69 2.57 3.13 1.44 1.44 3.13 2.57 1.68 1.13 3.56 1.9 1.88 0.78 3.87 1.18 2 0.39 4.03 0.39c11.39 0 20.62-9.24 20.62-20.63q0.01-2.03-0.39-4.02-0.39-2-1.17-3.87-0.78-1.88-1.91-3.57-1.13-1.69-2.57-3.12z"/>
		<path class="s3" d="m60.25 24.37q0.01-2.03-0.39-4.02-0.39-2-1.17-3.87-0.78-1.88-1.91-3.57-1.13-1.69-2.57-3.12l-29.17 29.17q1.44 1.44 3.13 2.57 1.69 1.13 3.56 1.9 1.88 0.78 3.87 1.18 2 0.39 4.03 0.39c11.39 0 20.62-9.24 20.62-20.63z"/>
		<path class="s4" d="m20.33 43.67l-3.95-3.96-16.38 16.34 3.98 3.97 3.97 3.98 16.38-16.34z"/>
		<path class="s5" d="m24.33 47.66l-4-3.99-16.35 16.36 3.97 3.97z"/>
	</g>
</svg>