<svg version="1.2" xmlns="http://www.w3.org/2000/svg" viewBox="0 0 64 64" width="64" height="64">
	<style>
		.s0 { fill: #676e74 } 
		.s1 { fill: #333637 } 
		.s2 { fill: #4c545a } 
		.s3 { fill: #52585c } 
		.s4 { fill: #ffda2d } 
		.s5 { fill: #fdbf00 } 
	</style>
	<g>
		<path class="s0" d="m26.38 52.63l11.25-0.01v11.38h-11.25z"/>
		<path class="s1" d="m32 52.63l5.63-0.01v11.38h-5.63z"/>
		<path class="s2" d="m22.63 47h18.75v9.38l-18.75-0.01z"/>
		<path class="s3" d="m32 47h9.38l-0.01 9.38-9.37-0.01z"/>
		<path class="s4" d="m45.01 36.73c-2.32 1.91-3.63 4.61-3.63 7.42v2.85h-18.75v-2.85c0-2.85-1.24-5.51-3.3-7.12-5.07-3.94-7.95-9.87-7.95-16.28q-0.01-2.3 0.5-4.55 0.5-2.24 1.49-4.32 0.99-2.08 2.41-3.88 1.42-1.81 3.21-3.26c3.71-3 8.25-4.74 13.01-4.74 1.46 0 2.96 0.15 4.42 0.45 8.11 1.69 14.48 8.45 15.9 16.66 1.28 7.5-1.42 14.85-7.31 19.62z"/>
		<path class="s5" d="m45.01 36.73c-2.32 1.91-3.63 4.61-3.63 7.42v2.85h-9.38v-47c1.46 0 2.96 0.15 4.42 0.45 8.11 1.69 14.48 8.45 15.9 16.66 1.28 7.5-1.42 14.85-7.31 19.62z"/>
		<path class="s0" d="m18.88 45.13l26.25-0.01v3.75h-26.25z"/>
		<g>
		</g>
		<path class="s1" d="m32 45.13l13.13-0.01-0.01 3.75h-13.12z"/>
		<path class="s4" d="m30.13 18.88h3.75v3.75h-3.75z"/>
		<path class="s5" d="m32 18.88h1.88v3.75h-1.88z"/>
	</g>
</svg>